<mxfile host="app.diagrams.net" modified="2023-08-17T19:30:00.065Z" agent="Mozilla/5.0 (Linux; Android 11; RMX2180) AppleWebKit/537.36 (KHTML, like Gecko) Chrome/106.0.0.0 Mobile Safari/537.36" version="21.6.8" etag="xNwTBz3JJIB6WT55Hycp" type="github">
  <diagram name="Halaman-1" id="gv5VfUIZv8fW1mKalxR9">
    <mxGraphModel>
      <root>
        <mxCell id="0" />
        <mxCell id="1" parent="0" />
      </root>
    </mxGraphModel>
  </diagram>
</mxfile>
